# xmcd CD database file
#
# Track frame offsets:
#	150
#	12771
#	24270
#	38204
#	51449
#	65043
#	78677
#	94492
#	106932
#	122380
#	133203
#	141239
#	155055
#	166536
#	178503
#	188140
#	202715
#	214986
#	226713
#	242654
#	255578
#
# Disc length: 3573 seconds
#
# Revision: 2
# Processed by: cddbd v1.5.1PL0 Copyright (c) Steve Scherf et al.
# Submitted via: jetAudio 5
#
DISCID=1c0df315
DTITLE=Various Artist - LT-1
DYEAR=2002
DGENRE=Pop
TTITLE0=Isgalvotas gyvenimas
TTITLE1=Karaoke - Zemyn upe
TTITLE2=Nereikia asaru
TTITLE3=Pasauki mane
TTITLE4=Svelnus, pukeli
TTITLE5=Berniukai
TTITLE6=Sirdele mano
TTITLE7=Skinsiu raudona roze
TTITLE8=Mazyte mano
TTITLE9=Kai sirpsta vysnios Suvalkijoj
TTITLE10=Ant kalno murai
TTITLE11=Vel geguzio ziedai
TTITLE12=Ir kam gi tu pabeldei
TTITLE13=Ko liudi berzeli
TTITLE14=Saulute nusileido
TTITLE15=Senas malunas
TTITLE16=Pusele
TTITLE17=Astros ziedas
TTITLE18=Suvalkijos berniokas
TTITLE19=Atskrend sakalelis
TTITLE20=Mano namas vyjokliais apauges
EXTD=
EXTT0=
EXTT1=
EXTT2=
EXTT3=
EXTT4=
EXTT5=
EXTT6=
EXTT7=
EXTT8=
EXTT9=
EXTT10=
EXTT11=
EXTT12=
EXTT13=
EXTT14=
EXTT15=
EXTT16=
EXTT17=
EXTT18=
EXTT19=
EXTT20=
PLAYORDER=
